<svg xmlns="http://www.w3.org/2000/svg" xmlns:xlink="http://www.w3.org/1999/xlink" width="48" height="48" viewBox="0 0 48 48">
  <defs>
    <clipPath id="clip-path">
      <rect id="Rectángulo_528" data-name="Rectángulo 528" width="48" height="48" transform="translate(-2097 3321)" fill="#c567f2" stroke="#707070" stroke-width="1"/>
    </clipPath>
  </defs>
  <g id="icon-menu" transform="translate(2097 -3321)" clip-path="url(#clip-path)">
    <path id="menu_FILL0_wght400_GRAD0_opsz24" d="M121.333-703.5a1.27,1.27,0,0,1-.95-.4,1.352,1.352,0,0,1-.383-.98,1.352,1.352,0,0,1,.383-.98,1.27,1.27,0,0,1,.95-.4h21.333a1.27,1.27,0,0,1,.95.4,1.352,1.352,0,0,1,.383.98,1.352,1.352,0,0,1-.383.98,1.27,1.27,0,0,1-.95.4Zm0-6.875a1.271,1.271,0,0,1-.95-.4,1.353,1.353,0,0,1-.383-.98,1.352,1.352,0,0,1,.383-.98,1.271,1.271,0,0,1,.95-.4h21.333a1.271,1.271,0,0,1,.95.4,1.352,1.352,0,0,1,.383.98,1.353,1.353,0,0,1-.383.98,1.271,1.271,0,0,1-.95.4Zm0-6.875a1.27,1.27,0,0,1-.95-.4,1.352,1.352,0,0,1-.383-.98,1.352,1.352,0,0,1,.383-.98,1.27,1.27,0,0,1,.95-.4h21.333a1.27,1.27,0,0,1,.95.4,1.352,1.352,0,0,1,.383.98,1.352,1.352,0,0,1-.383.98,1.27,1.27,0,0,1-.95.4Z" transform="translate(-2205 4056.75)" fill="#c567f2"/>
  </g>
</svg>
